<svg id="visual" viewBox="0 0 900 900" width="900" height="900" xmlns="http://www.w3.org/2000/svg" xmlns:xlink="http://www.w3.org/1999/xlink" version="1.1"><rect x="0" y="0" width="900" height="900" fill="#ffb532"></rect><defs><linearGradient id="grad1_0" x1="0%" y1="100%" x2="100%" y2="0%"><stop offset="30%" stop-color="#af3333" stop-opacity="1"></stop><stop offset="70%" stop-color="#af3333" stop-opacity="1"></stop></linearGradient></defs><defs><linearGradient id="grad1_1" x1="0%" y1="100%" x2="100%" y2="0%"><stop offset="30%" stop-color="#af3333" stop-opacity="1"></stop><stop offset="70%" stop-color="#e07131" stop-opacity="1"></stop></linearGradient></defs><defs><linearGradient id="grad1_2" x1="0%" y1="100%" x2="100%" y2="0%"><stop offset="30%" stop-color="#ffb532" stop-opacity="1"></stop><stop offset="70%" stop-color="#e07131" stop-opacity="1"></stop></linearGradient></defs><defs><linearGradient id="grad2_0" x1="0%" y1="100%" x2="100%" y2="0%"><stop offset="30%" stop-color="#af3333" stop-opacity="1"></stop><stop offset="70%" stop-color="#af3333" stop-opacity="1"></stop></linearGradient></defs><defs><linearGradient id="grad2_1" x1="0%" y1="100%" x2="100%" y2="0%"><stop offset="30%" stop-color="#e07131" stop-opacity="1"></stop><stop offset="70%" stop-color="#af3333" stop-opacity="1"></stop></linearGradient></defs><defs><linearGradient id="grad2_2" x1="0%" y1="100%" x2="100%" y2="0%"><stop offset="30%" stop-color="#e07131" stop-opacity="1"></stop><stop offset="70%" stop-color="#ffb532" stop-opacity="1"></stop></linearGradient></defs><g transform="translate(900, 900)"><path d="M-636.4 0C-558.6 -68.1 -480.8 -136.1 -419.4 -173.7C-358 -211.4 -313 -218.5 -295.6 -295.6C-278.1 -372.6 -288.2 -519.5 -243.5 -588C-198.9 -656.4 -99.4 -646.4 0 -636.4L0 0Z" fill="#f29230"></path><path d="M-424.3 0C-372.4 -45.4 -320.6 -90.7 -279.6 -115.8C-238.7 -140.9 -208.7 -145.7 -197 -197C-185.4 -248.4 -192.1 -346.3 -162.4 -392C-132.6 -437.6 -66.3 -430.9 0 -424.3L0 0Z" fill="#c95233"></path><path d="M-212.1 0C-186.2 -22.7 -160.3 -45.4 -139.8 -57.9C-119.3 -70.5 -104.3 -72.8 -98.5 -98.5C-92.7 -124.2 -96.1 -173.2 -81.2 -196C-66.3 -218.8 -33.1 -215.5 0 -212.1L0 0Z" fill="#af3333"></path></g><g transform="translate(0, 0)"><path d="M636.4 0C520 43.7 403.6 87.3 374.2 155C344.7 222.6 402.1 314.3 396 396C389.8 477.7 320.1 549.5 243.5 588C166.9 626.4 83.5 631.4 0 636.4L0 0Z" fill="#f29230"></path><path d="M424.3 0C346.7 29.1 269.1 58.2 249.4 103.3C229.8 148.4 268.1 209.5 264 264C259.9 318.5 213.4 366.4 162.4 392C111.3 417.6 55.6 420.9 0 424.3L0 0Z" fill="#c95233"></path><path d="M212.1 0C173.3 14.6 134.5 29.1 124.7 51.7C114.9 74.2 134 104.8 132 132C129.9 159.2 106.7 183.2 81.2 196C55.6 208.8 27.8 210.5 0 212.1L0 0Z" fill="#af3333"></path></g></svg>